solid OpenSCAD_Model
  facet normal -1 0 0
    outer loop
      vertex 1 0 30.7
      vertex 1 1 31.7
      vertex 1 1 30.7
    endloop
  endfacet
  facet normal -1 -0 0
    outer loop
      vertex 1 1 31.7
      vertex 1 0 30.7
      vertex 1 0 31.7
    endloop
  endfacet
  facet normal 0 0 1
    outer loop
      vertex 0 1 31.7
      vertex 2.8 2.8 31.7
      vertex 0 74.1 31.7
    endloop
  endfacet
  facet normal 0 0 1
    outer loop
      vertex 2.8 2.8 31.7
      vertex 0 1 31.7
      vertex 1 1 31.7
    endloop
  endfacet
  facet normal 0 0 1
    outer loop
      vertex 49.65 2.8 31.7
      vertex 2.8 2.8 31.7
      vertex 49.65 2.4 31.7
    endloop
  endfacet
  facet normal 0 0 1
    outer loop
      vertex 116.5 72.3 31.7
      vertex 118.3 74.1 31.7
      vertex 118.3 75.1 31.7
    endloop
  endfacet
  facet normal 0 0 1
    outer loop
      vertex 118.3 74.1 31.7
      vertex 116.5 72.3 31.7
      vertex 118.3 1 31.7
    endloop
  endfacet
  facet normal -0 0 1
    outer loop
      vertex 116.5 2.8 31.7
      vertex 118.3 1 31.7
      vertex 116.5 72.3 31.7
    endloop
  endfacet
  facet normal 0 0 1
    outer loop
      vertex 118.3 75.1 31.7
      vertex 70.45 72.7 31.7
      vertex 116.5 72.3 31.7
    endloop
  endfacet
  facet normal 0 0 1
    outer loop
      vertex 118.3 75.1 31.7
      vertex 49.65 72.7 31.7
      vertex 70.45 72.7 31.7
    endloop
  endfacet
  facet normal 0 0 1
    outer loop
      vertex 49.65 72.7 31.7
      vertex 2.8 72.3 31.7
      vertex 49.65 72.3 31.7
    endloop
  endfacet
  facet normal -0 0 1
    outer loop
      vertex 1 75.1 31.7
      vertex 49.65 72.7 31.7
      vertex 118.3 75.1 31.7
    endloop
  endfacet
  facet normal -0 0 1
    outer loop
      vertex 1 74.1 31.7
      vertex 2.8 72.3 31.7
      vertex 1 75.1 31.7
    endloop
  endfacet
  facet normal 0 0 1
    outer loop
      vertex 49.65 72.7 31.7
      vertex 1 75.1 31.7
      vertex 2.8 72.3 31.7
    endloop
  endfacet
  facet normal -0 0 1
    outer loop
      vertex 118.3 74.1 31.7
      vertex 119.3 1 31.7
      vertex 119.3 74.1 31.7
    endloop
  endfacet
  facet normal 0 0 1
    outer loop
      vertex 119.3 1 31.7
      vertex 118.3 74.1 31.7
      vertex 118.3 1 31.7
    endloop
  endfacet
  facet normal 0 0 1
    outer loop
      vertex 118.3 1 31.7
      vertex 116.5 2.8 31.7
      vertex 118.3 0 31.7
    endloop
  endfacet
  facet normal 0 0 1
    outer loop
      vertex 70.45 2.4 31.7
      vertex 116.5 2.8 31.7
      vertex 70.45 2.8 31.7
    endloop
  endfacet
  facet normal 0 0 1
    outer loop
      vertex 116.5 2.8 31.7
      vertex 70.45 2.4 31.7
      vertex 118.3 0 31.7
    endloop
  endfacet
  facet normal -0 0 1
    outer loop
      vertex 49.65 2.4 31.7
      vertex 118.3 0 31.7
      vertex 70.45 2.4 31.7
    endloop
  endfacet
  facet normal 0 0 1
    outer loop
      vertex 1 0 31.7
      vertex 49.65 2.4 31.7
      vertex 2.8 2.8 31.7
    endloop
  endfacet
  facet normal -0 0 1
    outer loop
      vertex 0 74.1 31.7
      vertex 2.8 72.3 31.7
      vertex 1 74.1 31.7
    endloop
  endfacet
  facet normal 0 0 1
    outer loop
      vertex 2.8 72.3 31.7
      vertex 0 74.1 31.7
      vertex 2.8 2.8 31.7
    endloop
  endfacet
  facet normal 0 0 1
    outer loop
      vertex 1 0 31.7
      vertex 2.8 2.8 31.7
      vertex 1 1 31.7
    endloop
  endfacet
  facet normal 0 0 1
    outer loop
      vertex 49.65 2.4 31.7
      vertex 1 0 31.7
      vertex 118.3 0 31.7
    endloop
  endfacet
  facet normal 0 0 1
    outer loop
      vertex 116.5 72.3 31.7
      vertex 70.45 72.7 31.7
      vertex 70.45 72.3 31.7
    endloop
  endfacet
  facet normal -0 0 1
    outer loop
      vertex 0 1 30.7
      vertex 1 0 30.7
      vertex 1 1 30.7
    endloop
  endfacet
  facet normal 0 0 1
    outer loop
      vertex 1 0 30.7
      vertex 0 1 30.7
      vertex 0 0 30.7
    endloop
  endfacet
  facet normal -1 0 0
    outer loop
      vertex 0 75.1 0
      vertex 0 74.1 30.7
      vertex 0 75.1 30.7
    endloop
  endfacet
  facet normal -1 0 0
    outer loop
      vertex 0 45.55 27.8
      vertex 0 74.1 30.7
      vertex 0 45.55 2.8
    endloop
  endfacet
  facet normal -1 0 0
    outer loop
      vertex 0 75.1 0
      vertex 0 45.55 2.8
      vertex 0 74.1 30.7
    endloop
  endfacet
  facet normal -1 0 0
    outer loop
      vertex 0 75.1 0
      vertex 0 29.55 2.8
      vertex 0 45.55 2.8
    endloop
  endfacet
  facet normal -1 0 0
    outer loop
      vertex 0 29.55 2.8
      vertex 0 1 30.7
      vertex 0 29.55 27.8
    endloop
  endfacet
  facet normal -1 0 0
    outer loop
      vertex 0 0 0
      vertex 0 29.55 2.8
      vertex 0 75.1 0
    endloop
  endfacet
  facet normal -1 0 0
    outer loop
      vertex 0 0 0
      vertex 0 1 30.7
      vertex 0 29.55 2.8
    endloop
  endfacet
  facet normal -1 -0 0
    outer loop
      vertex 0 1 30.7
      vertex 0 0 0
      vertex 0 0 30.7
    endloop
  endfacet
  facet normal -1 -0 0
    outer loop
      vertex 0 74.1 30.7
      vertex 0 45.55 27.8
      vertex 0 74.1 31.7
    endloop
  endfacet
  facet normal -1 0 0
    outer loop
      vertex 0 29.55 27.8
      vertex 0 74.1 31.7
      vertex 0 45.55 27.8
    endloop
  endfacet
  facet normal -1 0 0
    outer loop
      vertex 0 1 31.7
      vertex 0 29.55 27.8
      vertex 0 1 30.7
    endloop
  endfacet
  facet normal -1 0 0
    outer loop
      vertex 0 29.55 27.8
      vertex 0 1 31.7
      vertex 0 74.1 31.7
    endloop
  endfacet
  facet normal 0 -1 0
    outer loop
      vertex 0 1 30.7
      vertex 1 1 31.7
      vertex 0 1 31.7
    endloop
  endfacet
  facet normal 0 -1 -0
    outer loop
      vertex 1 1 31.7
      vertex 0 1 30.7
      vertex 1 1 30.7
    endloop
  endfacet
  facet normal 0 -1 0
    outer loop
      vertex 0 0 0
      vertex 1 0 30.7
      vertex 0 0 30.7
    endloop
  endfacet
  facet normal 0 -1 -0
    outer loop
      vertex 1 0 30.7
      vertex 0 0 0
      vertex 118.3 0 30.7
    endloop
  endfacet
  facet normal 0 -1 0
    outer loop
      vertex 119.3 0 0
      vertex 118.3 0 30.7
      vertex 0 0 0
    endloop
  endfacet
  facet normal 0 -1 0
    outer loop
      vertex 118.3 0 30.7
      vertex 119.3 0 0
      vertex 119.3 0 30.7
    endloop
  endfacet
  facet normal 0 -1 0
    outer loop
      vertex 1 0 30.7
      vertex 118.3 0 31.7
      vertex 1 0 31.7
    endloop
  endfacet
  facet normal 0 -1 -0
    outer loop
      vertex 118.3 0 31.7
      vertex 1 0 30.7
      vertex 118.3 0 30.7
    endloop
  endfacet
  facet normal 1 0 0
    outer loop
      vertex 119.3 74.1 31.7
      vertex 119.3 1 31.7
      vertex 119.3 74.1 30.7
    endloop
  endfacet
  facet normal 1 -0 0
    outer loop
      vertex 119.3 74.1 30.7
      vertex 119.3 75.1 0
      vertex 119.3 75.1 30.7
    endloop
  endfacet
  facet normal 1 0 0
    outer loop
      vertex 119.3 1 30.7
      vertex 119.3 74.1 30.7
      vertex 119.3 1 31.7
    endloop
  endfacet
  facet normal 1 0 0
    outer loop
      vertex 119.3 74.1 30.7
      vertex 119.3 1 30.7
      vertex 119.3 75.1 0
    endloop
  endfacet
  facet normal 1 0 0
    outer loop
      vertex 119.3 0 0
      vertex 119.3 1 30.7
      vertex 119.3 0 30.7
    endloop
  endfacet
  facet normal 1 0 0
    outer loop
      vertex 119.3 1 30.7
      vertex 119.3 0 0
      vertex 119.3 75.1 0
    endloop
  endfacet
  facet normal -0 0 1
    outer loop
      vertex 118.3 1 30.7
      vertex 119.3 0 30.7
      vertex 119.3 1 30.7
    endloop
  endfacet
  facet normal 0 0 1
    outer loop
      vertex 119.3 0 30.7
      vertex 118.3 1 30.7
      vertex 118.3 0 30.7
    endloop
  endfacet
  facet normal 1 -0 0
    outer loop
      vertex 118.3 0 31.7
      vertex 118.3 1 30.7
      vertex 118.3 1 31.7
    endloop
  endfacet
  facet normal 1 0 0
    outer loop
      vertex 118.3 1 30.7
      vertex 118.3 0 31.7
      vertex 118.3 0 30.7
    endloop
  endfacet
  facet normal 0 -1 0
    outer loop
      vertex 118.3 1 30.7
      vertex 119.3 1 31.7
      vertex 118.3 1 31.7
    endloop
  endfacet
  facet normal 0 -1 -0
    outer loop
      vertex 119.3 1 31.7
      vertex 118.3 1 30.7
      vertex 119.3 1 30.7
    endloop
  endfacet
  facet normal -1 0 0
    outer loop
      vertex 1 74.1 30.7
      vertex 1 75.1 31.7
      vertex 1 75.1 30.7
    endloop
  endfacet
  facet normal -1 -0 0
    outer loop
      vertex 1 75.1 31.7
      vertex 1 74.1 30.7
      vertex 1 74.1 31.7
    endloop
  endfacet
  facet normal -0 0 1
    outer loop
      vertex 0 75.1 30.7
      vertex 1 74.1 30.7
      vertex 1 75.1 30.7
    endloop
  endfacet
  facet normal 0 0 1
    outer loop
      vertex 1 74.1 30.7
      vertex 0 75.1 30.7
      vertex 0 74.1 30.7
    endloop
  endfacet
  facet normal 0 1 -0
    outer loop
      vertex 119.3 75.1 0
      vertex 118.3 75.1 30.7
      vertex 119.3 75.1 30.7
    endloop
  endfacet
  facet normal 0 1 0
    outer loop
      vertex 118.3 75.1 30.7
      vertex 119.3 75.1 0
      vertex 1 75.1 30.7
    endloop
  endfacet
  facet normal 0 1 0
    outer loop
      vertex 0 75.1 0
      vertex 1 75.1 30.7
      vertex 119.3 75.1 0
    endloop
  endfacet
  facet normal 0 1 0
    outer loop
      vertex 1 75.1 30.7
      vertex 0 75.1 0
      vertex 0 75.1 30.7
    endloop
  endfacet
  facet normal 0 1 -0
    outer loop
      vertex 118.3 75.1 30.7
      vertex 1 75.1 31.7
      vertex 118.3 75.1 31.7
    endloop
  endfacet
  facet normal 0 1 0
    outer loop
      vertex 1 75.1 31.7
      vertex 118.3 75.1 30.7
      vertex 1 75.1 30.7
    endloop
  endfacet
  facet normal 0 1 -0
    outer loop
      vertex 1 74.1 30.7
      vertex 0 74.1 31.7
      vertex 1 74.1 31.7
    endloop
  endfacet
  facet normal 0 1 0
    outer loop
      vertex 0 74.1 31.7
      vertex 1 74.1 30.7
      vertex 0 74.1 30.7
    endloop
  endfacet
  facet normal -0 0 1
    outer loop
      vertex 118.3 75.1 30.7
      vertex 119.3 74.1 30.7
      vertex 119.3 75.1 30.7
    endloop
  endfacet
  facet normal 0 0 1
    outer loop
      vertex 119.3 74.1 30.7
      vertex 118.3 75.1 30.7
      vertex 118.3 74.1 30.7
    endloop
  endfacet
  facet normal 1 -0 0
    outer loop
      vertex 118.3 74.1 31.7
      vertex 118.3 75.1 30.7
      vertex 118.3 75.1 31.7
    endloop
  endfacet
  facet normal 1 0 0
    outer loop
      vertex 118.3 75.1 30.7
      vertex 118.3 74.1 31.7
      vertex 118.3 74.1 30.7
    endloop
  endfacet
  facet normal 0 1 -0
    outer loop
      vertex 119.3 74.1 30.7
      vertex 118.3 74.1 31.7
      vertex 119.3 74.1 31.7
    endloop
  endfacet
  facet normal 0 1 0
    outer loop
      vertex 118.3 74.1 31.7
      vertex 119.3 74.1 30.7
      vertex 118.3 74.1 30.7
    endloop
  endfacet
  facet normal 0 0 -1
    outer loop
      vertex 0 0 0
      vertex 119.3 75.1 0
      vertex 119.3 0 0
    endloop
  endfacet
  facet normal -0 0 -1
    outer loop
      vertex 119.3 75.1 0
      vertex 0 0 0
      vertex 0 75.1 0
    endloop
  endfacet
  facet normal -1 0 0
    outer loop
      vertex 116.5 2.8 2.8
      vertex 116.5 72.3 31.7
      vertex 116.5 72.3 2.8
    endloop
  endfacet
  facet normal -1 -0 0
    outer loop
      vertex 116.5 72.3 31.7
      vertex 116.5 2.8 2.8
      vertex 116.5 2.8 31.7
    endloop
  endfacet
  facet normal -0 0 1
    outer loop
      vertex 0 45.55 2.8
      vertex 2.8 29.55 2.8
      vertex 2.8 45.55 2.8
    endloop
  endfacet
  facet normal 0 0 1
    outer loop
      vertex 2.8 29.55 2.8
      vertex 0 45.55 2.8
      vertex 0 29.55 2.8
    endloop
  endfacet
  facet normal -0 0 1
    outer loop
      vertex 2.8 72.3 2.8
      vertex 102.5 70.5 2.8
      vertex 102.5 72.3 2.8
    endloop
  endfacet
  facet normal 0 0 1
    outer loop
      vertex 102.5 70.5 2.8
      vertex 2.8 45.55 2.8
      vertex 17.4 4.6 2.8
    endloop
  endfacet
  facet normal 0 0 1
    outer loop
      vertex 102.5 70.5 2.8
      vertex 2.8 72.3 2.8
      vertex 2.8 45.55 2.8
    endloop
  endfacet
  facet normal -0 0 1
    outer loop
      vertex 2.8 29.55 2.8
      vertex 17.4 4.6 2.8
      vertex 2.8 45.55 2.8
    endloop
  endfacet
  facet normal 0 0 1
    outer loop
      vertex 17.4 4.6 2.8
      vertex 2.8 29.55 2.8
      vertex 12.8 4.6 2.8
    endloop
  endfacet
  facet normal 0 0 1
    outer loop
      vertex 2.8 2.8 2.8
      vertex 12.8 4.6 2.8
      vertex 2.8 29.55 2.8
    endloop
  endfacet
  facet normal 0 0 1
    outer loop
      vertex 12.8 4.6 2.8
      vertex 2.8 2.8 2.8
      vertex 12.8 2.8 2.8
    endloop
  endfacet
  facet normal 0 0 1
    outer loop
      vertex 107.1 70.5 2.8
      vertex 116.5 72.3 2.8
      vertex 107.1 72.3 2.8
    endloop
  endfacet
  facet normal 0 0 1
    outer loop
      vertex 116.5 72.3 2.8
      vertex 107.1 70.5 2.8
      vertex 116.5 2.8 2.8
    endloop
  endfacet
  facet normal -0 0 1
    outer loop
      vertex 102.5 70.5 2.8
      vertex 116.5 2.8 2.8
      vertex 107.1 70.5 2.8
    endloop
  endfacet
  facet normal -0 0 1
    outer loop
      vertex 17.4 4.6 2.8
      vertex 116.5 2.8 2.8
      vertex 102.5 70.5 2.8
    endloop
  endfacet
  facet normal 0 0 1
    outer loop
      vertex 116.5 2.8 2.8
      vertex 17.4 4.6 2.8
      vertex 17.4 2.8 2.8
    endloop
  endfacet
  facet normal 1 0 0
    outer loop
      vertex 2.8 72.3 31.7
      vertex 2.8 45.55 27.8
      vertex 2.8 72.3 2.8
    endloop
  endfacet
  facet normal 1 0 0
    outer loop
      vertex 2.8 72.3 31.7
      vertex 2.8 29.55 27.8
      vertex 2.8 45.55 27.8
    endloop
  endfacet
  facet normal 1 -0 0
    outer loop
      vertex 2.8 2.8 31.7
      vertex 2.8 29.55 27.8
      vertex 2.8 72.3 31.7
    endloop
  endfacet
  facet normal 1 0 0
    outer loop
      vertex 2.8 2.8 2.8
      vertex 2.8 29.55 27.8
      vertex 2.8 2.8 31.7
    endloop
  endfacet
  facet normal 1 0 0
    outer loop
      vertex 2.8 29.55 27.8
      vertex 2.8 2.8 2.8
      vertex 2.8 29.55 2.8
    endloop
  endfacet
  facet normal 1 0 0
    outer loop
      vertex 2.8 72.3 2.8
      vertex 2.8 45.55 27.8
      vertex 2.8 45.55 2.8
    endloop
  endfacet
  facet normal 0 -1 0
    outer loop
      vertex 2.8 72.3 31.7
      vertex 49.65 72.3 28.1
      vertex 49.65 72.3 31.7
    endloop
  endfacet
  facet normal 0 -1 0
    outer loop
      vertex 102.5 72.3 2.8
      vertex 70.45 72.3 28.1
      vertex 49.65 72.3 28.1
    endloop
  endfacet
  facet normal 0 -1 0
    outer loop
      vertex 2.8 72.3 2.8
      vertex 49.65 72.3 28.1
      vertex 2.8 72.3 31.7
    endloop
  endfacet
  facet normal 0 -1 0
    outer loop
      vertex 102.5 72.3 2.8
      vertex 49.65 72.3 28.1
      vertex 2.8 72.3 2.8
    endloop
  endfacet
  facet normal 0 -1 0
    outer loop
      vertex 70.45 72.3 28.1
      vertex 102.5 72.3 2.8
      vertex 102.5 72.3 5.1
    endloop
  endfacet
  facet normal 0 -1 0
    outer loop
      vertex 70.45 72.3 28.1
      vertex 116.5 72.3 31.7
      vertex 70.45 72.3 31.7
    endloop
  endfacet
  facet normal 0 -1 0
    outer loop
      vertex 102.5 72.3 5.1
      vertex 116.5 72.3 31.7
      vertex 70.45 72.3 28.1
    endloop
  endfacet
  facet normal 0 -1 0
    outer loop
      vertex 107.1 72.3 5.1
      vertex 116.5 72.3 31.7
      vertex 102.5 72.3 5.1
    endloop
  endfacet
  facet normal 0 -1 0
    outer loop
      vertex 116.5 72.3 2.8
      vertex 107.1 72.3 5.1
      vertex 107.1 72.3 2.8
    endloop
  endfacet
  facet normal 0 -1 0
    outer loop
      vertex 107.1 72.3 5.1
      vertex 116.5 72.3 2.8
      vertex 116.5 72.3 31.7
    endloop
  endfacet
  facet normal 0 1 0
    outer loop
      vertex 116.5 2.8 31.7
      vertex 70.45 2.8 28.1
      vertex 70.45 2.8 31.7
    endloop
  endfacet
  facet normal 0 1 0
    outer loop
      vertex 17.4 2.8 2.8
      vertex 49.65 2.8 28.1
      vertex 70.45 2.8 28.1
    endloop
  endfacet
  facet normal 0 1 -0
    outer loop
      vertex 116.5 2.8 2.8
      vertex 70.45 2.8 28.1
      vertex 116.5 2.8 31.7
    endloop
  endfacet
  facet normal 0 1 0
    outer loop
      vertex 17.4 2.8 2.8
      vertex 70.45 2.8 28.1
      vertex 116.5 2.8 2.8
    endloop
  endfacet
  facet normal 0 1 0
    outer loop
      vertex 49.65 2.8 28.1
      vertex 17.4 2.8 2.8
      vertex 17.4 2.8 5.1
    endloop
  endfacet
  facet normal 0 1 -0
    outer loop
      vertex 49.65 2.8 28.1
      vertex 2.8 2.8 31.7
      vertex 49.65 2.8 31.7
    endloop
  endfacet
  facet normal 0 1 -0
    outer loop
      vertex 17.4 2.8 5.1
      vertex 2.8 2.8 31.7
      vertex 49.65 2.8 28.1
    endloop
  endfacet
  facet normal 0 1 -0
    outer loop
      vertex 12.8 2.8 5.1
      vertex 2.8 2.8 31.7
      vertex 17.4 2.8 5.1
    endloop
  endfacet
  facet normal 0 1 0
    outer loop
      vertex 2.8 2.8 2.8
      vertex 12.8 2.8 5.1
      vertex 12.8 2.8 2.8
    endloop
  endfacet
  facet normal 0 1 0
    outer loop
      vertex 12.8 2.8 5.1
      vertex 2.8 2.8 2.8
      vertex 2.8 2.8 31.7
    endloop
  endfacet
  facet normal 0 0 -1
    outer loop
      vertex 0 29.55 27.8
      vertex 2.8 45.55 27.8
      vertex 2.8 29.55 27.8
    endloop
  endfacet
  facet normal -0 0 -1
    outer loop
      vertex 2.8 45.55 27.8
      vertex 0 29.55 27.8
      vertex 0 45.55 27.8
    endloop
  endfacet
  facet normal 0 -1 0
    outer loop
      vertex 0 45.55 2.8
      vertex 2.8 45.55 27.8
      vertex 0 45.55 27.8
    endloop
  endfacet
  facet normal 0 -1 -0
    outer loop
      vertex 2.8 45.55 27.8
      vertex 0 45.55 2.8
      vertex 2.8 45.55 2.8
    endloop
  endfacet
  facet normal 0 1 -0
    outer loop
      vertex 2.8 29.55 2.8
      vertex 0 29.55 27.8
      vertex 2.8 29.55 27.8
    endloop
  endfacet
  facet normal 0 1 0
    outer loop
      vertex 0 29.55 27.8
      vertex 2.8 29.55 2.8
      vertex 0 29.55 2.8
    endloop
  endfacet
  facet normal -1 0 0
    outer loop
      vertex 70.45 2.4 28.1
      vertex 70.45 2.8 31.7
      vertex 70.45 2.8 28.1
    endloop
  endfacet
  facet normal -1 -0 0
    outer loop
      vertex 70.45 2.8 31.7
      vertex 70.45 2.4 28.1
      vertex 70.45 2.4 31.7
    endloop
  endfacet
  facet normal -0 0 1
    outer loop
      vertex 49.65 2.8 28.1
      vertex 70.45 2.4 28.1
      vertex 70.45 2.8 28.1
    endloop
  endfacet
  facet normal 0 0 1
    outer loop
      vertex 70.45 2.4 28.1
      vertex 49.65 2.8 28.1
      vertex 49.65 2.4 28.1
    endloop
  endfacet
  facet normal 1 -0 0
    outer loop
      vertex 49.65 2.4 31.7
      vertex 49.65 2.8 28.1
      vertex 49.65 2.8 31.7
    endloop
  endfacet
  facet normal 1 0 0
    outer loop
      vertex 49.65 2.8 28.1
      vertex 49.65 2.4 31.7
      vertex 49.65 2.4 28.1
    endloop
  endfacet
  facet normal 0 1 -0
    outer loop
      vertex 70.45 2.4 28.1
      vertex 49.65 2.4 31.7
      vertex 70.45 2.4 31.7
    endloop
  endfacet
  facet normal 0 1 0
    outer loop
      vertex 49.65 2.4 31.7
      vertex 70.45 2.4 28.1
      vertex 49.65 2.4 28.1
    endloop
  endfacet
  facet normal -1 0 0
    outer loop
      vertex 70.45 72.3 28.1
      vertex 70.45 72.7 31.7
      vertex 70.45 72.7 28.1
    endloop
  endfacet
  facet normal -1 -0 0
    outer loop
      vertex 70.45 72.7 31.7
      vertex 70.45 72.3 28.1
      vertex 70.45 72.3 31.7
    endloop
  endfacet
  facet normal -0 0 1
    outer loop
      vertex 49.65 72.7 28.1
      vertex 70.45 72.3 28.1
      vertex 70.45 72.7 28.1
    endloop
  endfacet
  facet normal 0 0 1
    outer loop
      vertex 70.45 72.3 28.1
      vertex 49.65 72.7 28.1
      vertex 49.65 72.3 28.1
    endloop
  endfacet
  facet normal 1 -0 0
    outer loop
      vertex 49.65 72.3 31.7
      vertex 49.65 72.7 28.1
      vertex 49.65 72.7 31.7
    endloop
  endfacet
  facet normal 1 0 0
    outer loop
      vertex 49.65 72.7 28.1
      vertex 49.65 72.3 31.7
      vertex 49.65 72.3 28.1
    endloop
  endfacet
  facet normal 0 -1 0
    outer loop
      vertex 49.65 72.7 28.1
      vertex 70.45 72.7 31.7
      vertex 49.65 72.7 31.7
    endloop
  endfacet
  facet normal 0 -1 -0
    outer loop
      vertex 70.45 72.7 31.7
      vertex 49.65 72.7 28.1
      vertex 70.45 72.7 28.1
    endloop
  endfacet
  facet normal -1 0 0
    outer loop
      vertex 17.4 4.6 2.5
      vertex 17.4 2.8 2.8
      vertex 17.4 4.6 2.8
    endloop
  endfacet
  facet normal -1 0 0
    outer loop
      vertex 17.4 2.5 2.5
      vertex 17.4 2.8 2.8
      vertex 17.4 4.6 2.5
    endloop
  endfacet
  facet normal -1 0 0
    outer loop
      vertex 17.4 2.5 5.1
      vertex 17.4 2.8 2.8
      vertex 17.4 2.5 2.5
    endloop
  endfacet
  facet normal -1 0 0
    outer loop
      vertex 17.4 2.8 2.8
      vertex 17.4 2.5 5.1
      vertex 17.4 2.8 5.1
    endloop
  endfacet
  facet normal 0 0 -1
    outer loop
      vertex 12.8 2.5 5.1
      vertex 17.4 2.8 5.1
      vertex 17.4 2.5 5.1
    endloop
  endfacet
  facet normal -0 0 -1
    outer loop
      vertex 17.4 2.8 5.1
      vertex 12.8 2.5 5.1
      vertex 12.8 2.8 5.1
    endloop
  endfacet
  facet normal -0 0 1
    outer loop
      vertex 12.8 4.6 2.5
      vertex 17.4 2.5 2.5
      vertex 17.4 4.6 2.5
    endloop
  endfacet
  facet normal 0 0 1
    outer loop
      vertex 17.4 2.5 2.5
      vertex 12.8 4.6 2.5
      vertex 12.8 2.5 2.5
    endloop
  endfacet
  facet normal 1 0 0
    outer loop
      vertex 12.8 2.8 5.1
      vertex 12.8 2.5 5.1
      vertex 12.8 2.8 2.8
    endloop
  endfacet
  facet normal 1 -0 0
    outer loop
      vertex 12.8 2.8 2.8
      vertex 12.8 4.6 2.5
      vertex 12.8 4.6 2.8
    endloop
  endfacet
  facet normal 1 0 0
    outer loop
      vertex 12.8 2.8 2.8
      vertex 12.8 2.5 2.5
      vertex 12.8 4.6 2.5
    endloop
  endfacet
  facet normal 1 0 0
    outer loop
      vertex 12.8 2.5 2.5
      vertex 12.8 2.8 2.8
      vertex 12.8 2.5 5.1
    endloop
  endfacet
  facet normal 0 -1 0
    outer loop
      vertex 12.8 4.6 2.5
      vertex 17.4 4.6 2.8
      vertex 12.8 4.6 2.8
    endloop
  endfacet
  facet normal 0 -1 -0
    outer loop
      vertex 17.4 4.6 2.8
      vertex 12.8 4.6 2.5
      vertex 17.4 4.6 2.5
    endloop
  endfacet
  facet normal 0 1 -0
    outer loop
      vertex 17.4 2.5 2.5
      vertex 12.8 2.5 5.1
      vertex 17.4 2.5 5.1
    endloop
  endfacet
  facet normal 0 1 0
    outer loop
      vertex 12.8 2.5 5.1
      vertex 17.4 2.5 2.5
      vertex 12.8 2.5 2.5
    endloop
  endfacet
  facet normal -1 0 0
    outer loop
      vertex 107.1 72.6 2.5
      vertex 107.1 72.3 2.8
      vertex 107.1 72.6 5.1
    endloop
  endfacet
  facet normal -1 0 0
    outer loop
      vertex 107.1 70.5 2.5
      vertex 107.1 72.3 2.8
      vertex 107.1 72.6 2.5
    endloop
  endfacet
  facet normal -1 -0 0
    outer loop
      vertex 107.1 72.3 2.8
      vertex 107.1 70.5 2.5
      vertex 107.1 70.5 2.8
    endloop
  endfacet
  facet normal -1 -0 0
    outer loop
      vertex 107.1 72.6 5.1
      vertex 107.1 72.3 2.8
      vertex 107.1 72.3 5.1
    endloop
  endfacet
  facet normal 0 0 -1
    outer loop
      vertex 102.5 72.3 5.1
      vertex 107.1 72.6 5.1
      vertex 107.1 72.3 5.1
    endloop
  endfacet
  facet normal -0 0 -1
    outer loop
      vertex 107.1 72.6 5.1
      vertex 102.5 72.3 5.1
      vertex 102.5 72.6 5.1
    endloop
  endfacet
  facet normal -0 0 1
    outer loop
      vertex 102.5 72.6 2.5
      vertex 107.1 70.5 2.5
      vertex 107.1 72.6 2.5
    endloop
  endfacet
  facet normal 0 0 1
    outer loop
      vertex 107.1 70.5 2.5
      vertex 102.5 72.6 2.5
      vertex 102.5 70.5 2.5
    endloop
  endfacet
  facet normal 1 0 0
    outer loop
      vertex 102.5 72.3 2.8
      vertex 102.5 72.6 5.1
      vertex 102.5 72.3 5.1
    endloop
  endfacet
  facet normal 1 0 0
    outer loop
      vertex 102.5 72.6 5.1
      vertex 102.5 72.3 2.8
      vertex 102.5 72.6 2.5
    endloop
  endfacet
  facet normal 1 0 0
    outer loop
      vertex 102.5 70.5 2.5
      vertex 102.5 72.3 2.8
      vertex 102.5 70.5 2.8
    endloop
  endfacet
  facet normal 1 0 0
    outer loop
      vertex 102.5 72.3 2.8
      vertex 102.5 70.5 2.5
      vertex 102.5 72.6 2.5
    endloop
  endfacet
  facet normal 0 -1 0
    outer loop
      vertex 102.5 72.6 2.5
      vertex 107.1 72.6 5.1
      vertex 102.5 72.6 5.1
    endloop
  endfacet
  facet normal 0 -1 -0
    outer loop
      vertex 107.1 72.6 5.1
      vertex 102.5 72.6 2.5
      vertex 107.1 72.6 2.5
    endloop
  endfacet
  facet normal 0 1 -0
    outer loop
      vertex 107.1 70.5 2.5
      vertex 102.5 70.5 2.8
      vertex 107.1 70.5 2.8
    endloop
  endfacet
  facet normal 0 1 0
    outer loop
      vertex 102.5 70.5 2.8
      vertex 107.1 70.5 2.5
      vertex 102.5 70.5 2.5
    endloop
  endfacet
  facet normal 1 -0 0
    outer loop
      vertex 253.6 -75.1 0
      vertex 253.6 0 -2.8
      vertex 253.6 0 0
    endloop
  endfacet
  facet normal 1 0 0
    outer loop
      vertex 253.6 0 -2.8
      vertex 253.6 -75.1 0
      vertex 253.6 -75.1 -2.8
    endloop
  endfacet
  facet normal 0 0 -1
    outer loop
      vertex 134.3 -75.1 -2.8
      vertex 253.6 0 -2.8
      vertex 253.6 -75.1 -2.8
    endloop
  endfacet
  facet normal -0 0 -1
    outer loop
      vertex 253.6 0 -2.8
      vertex 134.3 -75.1 -2.8
      vertex 134.3 0 -2.8
    endloop
  endfacet
  facet normal 0 0 1
    outer loop
      vertex 253.6 0 0
      vertex 252.8 -0.799999 0
      vertex 253.6 -75.1 0
    endloop
  endfacet
  facet normal 0 0 1
    outer loop
      vertex 253.6 0 0
      vertex 135.1 -0.799999 0
      vertex 252.8 -0.799999 0
    endloop
  endfacet
  facet normal 0 0 1
    outer loop
      vertex 135.1 -0.799999 0
      vertex 134.3 0 0
      vertex 135.1 -74.3 0
    endloop
  endfacet
  facet normal -0 0 1
    outer loop
      vertex 134.3 0 0
      vertex 135.1 -0.799999 0
      vertex 253.6 0 0
    endloop
  endfacet
  facet normal -0 0 1
    outer loop
      vertex 252.8 -74.3 0
      vertex 253.6 -75.1 0
      vertex 252.8 -0.799999 0
    endloop
  endfacet
  facet normal -0 0 1
    outer loop
      vertex 135.1 -74.3 0
      vertex 253.6 -75.1 0
      vertex 252.8 -74.3 0
    endloop
  endfacet
  facet normal 0 0 1
    outer loop
      vertex 135.1 -74.3 0
      vertex 134.3 -75.1 0
      vertex 253.6 -75.1 0
    endloop
  endfacet
  facet normal 0 0 1
    outer loop
      vertex 134.3 -75.1 0
      vertex 135.1 -74.3 0
      vertex 134.3 0 0
    endloop
  endfacet
  facet normal -1 0 0
    outer loop
      vertex 134.3 -75.1 -2.8
      vertex 134.3 0 0
      vertex 134.3 0 -2.8
    endloop
  endfacet
  facet normal -1 -0 0
    outer loop
      vertex 134.3 0 0
      vertex 134.3 -75.1 -2.8
      vertex 134.3 -75.1 0
    endloop
  endfacet
  facet normal 0 -1 0
    outer loop
      vertex 134.3 -75.1 -2.8
      vertex 253.6 -75.1 0
      vertex 134.3 -75.1 0
    endloop
  endfacet
  facet normal 0 -1 -0
    outer loop
      vertex 253.6 -75.1 0
      vertex 134.3 -75.1 -2.8
      vertex 253.6 -75.1 -2.8
    endloop
  endfacet
  facet normal 0 1 -0
    outer loop
      vertex 253.6 0 -2.8
      vertex 134.3 0 0
      vertex 253.6 0 0
    endloop
  endfacet
  facet normal 0 1 0
    outer loop
      vertex 134.3 0 0
      vertex 253.6 0 -2.8
      vertex 134.3 0 -2.8
    endloop
  endfacet
  facet normal 1 -0 0
    outer loop
      vertex 252.8 -74.3 2
      vertex 252.8 -0.799999 0
      vertex 252.8 -0.799999 2
    endloop
  endfacet
  facet normal 1 0 0
    outer loop
      vertex 252.8 -0.799999 0
      vertex 252.8 -74.3 2
      vertex 252.8 -74.3 0
    endloop
  endfacet
  facet normal -0 0 1
    outer loop
      vertex 183.95 -5.6 2
      vertex 203.95 -68.7 2
      vertex 203.95 -5.6 2
    endloop
  endfacet
  facet normal 0 0 1
    outer loop
      vertex 203.95 -68.7 2
      vertex 183.95 -5.6 2
      vertex 183.95 -68.7 2
    endloop
  endfacet
  facet normal 0 0 1
    outer loop
      vertex 203.95 -5.6 2
      vertex 252.8 -0.799999 2
      vertex 203.95 -2.4 2
    endloop
  endfacet
  facet normal 0 0 1
    outer loop
      vertex 252.8 -0.799999 2
      vertex 183.95 -2.4 2
      vertex 203.95 -2.4 2
    endloop
  endfacet
  facet normal 0 0 1
    outer loop
      vertex 135.1 -0.799999 2
      vertex 183.95 -5.6 2
      vertex 183.95 -2.4 2
    endloop
  endfacet
  facet normal 0 0 1
    outer loop
      vertex 183.95 -5.6 2
      vertex 135.1 -0.799999 2
      vertex 183.95 -68.7 2
    endloop
  endfacet
  facet normal 0 0 1
    outer loop
      vertex 135.1 -74.3 2
      vertex 183.95 -68.7 2
      vertex 135.1 -0.799999 2
    endloop
  endfacet
  facet normal -0 0 1
    outer loop
      vertex 135.1 -0.799999 2
      vertex 183.95 -2.4 2
      vertex 252.8 -0.799999 2
    endloop
  endfacet
  facet normal 0 0 1
    outer loop
      vertex 203.95 -68.7 2
      vertex 252.8 -0.799999 2
      vertex 203.95 -5.6 2
    endloop
  endfacet
  facet normal 0 0 1
    outer loop
      vertex 252.8 -0.799999 2
      vertex 203.95 -68.7 2
      vertex 252.8 -74.3 2
    endloop
  endfacet
  facet normal -0 0 1
    outer loop
      vertex 203.95 -71.9 2
      vertex 252.8 -74.3 2
      vertex 203.95 -68.7 2
    endloop
  endfacet
  facet normal -0 0 1
    outer loop
      vertex 183.95 -71.9 2
      vertex 252.8 -74.3 2
      vertex 203.95 -71.9 2
    endloop
  endfacet
  facet normal 0 0 1
    outer loop
      vertex 183.95 -71.9 2
      vertex 135.1 -74.3 2
      vertex 252.8 -74.3 2
    endloop
  endfacet
  facet normal 0 0 1
    outer loop
      vertex 183.95 -68.7 2
      vertex 135.1 -74.3 2
      vertex 183.95 -71.9 2
    endloop
  endfacet
  facet normal -1 0 0
    outer loop
      vertex 135.1 -74.3 0
      vertex 135.1 -0.799999 2
      vertex 135.1 -0.799999 0
    endloop
  endfacet
  facet normal -1 -0 0
    outer loop
      vertex 135.1 -0.799999 2
      vertex 135.1 -74.3 0
      vertex 135.1 -74.3 2
    endloop
  endfacet
  facet normal 0 -1 0
    outer loop
      vertex 135.1 -74.3 0
      vertex 252.8 -74.3 2
      vertex 135.1 -74.3 2
    endloop
  endfacet
  facet normal 0 -1 -0
    outer loop
      vertex 252.8 -74.3 2
      vertex 135.1 -74.3 0
      vertex 252.8 -74.3 0
    endloop
  endfacet
  facet normal 0 1 -0
    outer loop
      vertex 252.8 -0.799999 0
      vertex 135.1 -0.799999 2
      vertex 252.8 -0.799999 2
    endloop
  endfacet
  facet normal 0 1 0
    outer loop
      vertex 135.1 -0.799999 2
      vertex 252.8 -0.799999 0
      vertex 135.1 -0.799999 0
    endloop
  endfacet
  facet normal 1 0 0
    outer loop
      vertex 203.95 -3.4 6
      vertex 203.95 -5.6 6
      vertex 203.95 -3.4 5
    endloop
  endfacet
  facet normal 1 -0 0
    outer loop
      vertex 203.95 -3.4 5
      vertex 203.95 -2.4 2
      vertex 203.95 -2.4 5
    endloop
  endfacet
  facet normal 1 0 0
    outer loop
      vertex 203.95 -5.6 2
      vertex 203.95 -3.4 5
      vertex 203.95 -5.6 6
    endloop
  endfacet
  facet normal 1 0 0
    outer loop
      vertex 203.95 -3.4 5
      vertex 203.95 -5.6 2
      vertex 203.95 -2.4 2
    endloop
  endfacet
  facet normal 0 0 1
    outer loop
      vertex 202.95 -2.4 6
      vertex 184.95 -2.4 6
      vertex 202.95 -3.4 6
    endloop
  endfacet
  facet normal -0 0 1
    outer loop
      vertex 202.95 -3.4 6
      vertex 203.95 -5.6 6
      vertex 203.95 -3.4 6
    endloop
  endfacet
  facet normal 0 0 1
    outer loop
      vertex 184.95 -3.4 6
      vertex 202.95 -3.4 6
      vertex 184.95 -2.4 6
    endloop
  endfacet
  facet normal 0 0 1
    outer loop
      vertex 202.95 -3.4 6
      vertex 184.95 -3.4 6
      vertex 203.95 -5.6 6
    endloop
  endfacet
  facet normal 0 0 1
    outer loop
      vertex 183.95 -5.6 6
      vertex 184.95 -3.4 6
      vertex 183.95 -3.4 6
    endloop
  endfacet
  facet normal 0 0 1
    outer loop
      vertex 184.95 -3.4 6
      vertex 183.95 -5.6 6
      vertex 203.95 -5.6 6
    endloop
  endfacet
  facet normal -1 0 0
    outer loop
      vertex 183.95 -2.4 2
      vertex 183.95 -3.4 5
      vertex 183.95 -2.4 5
    endloop
  endfacet
  facet normal -1 0 0
    outer loop
      vertex 183.95 -5.6 2
      vertex 183.95 -3.4 5
      vertex 183.95 -2.4 2
    endloop
  endfacet
  facet normal -1 0 0
    outer loop
      vertex 183.95 -5.6 6
      vertex 183.95 -3.4 5
      vertex 183.95 -5.6 2
    endloop
  endfacet
  facet normal -1 0 0
    outer loop
      vertex 183.95 -3.4 5
      vertex 183.95 -5.6 6
      vertex 183.95 -3.4 6
    endloop
  endfacet
  facet normal 0 -1 0
    outer loop
      vertex 183.95 -5.6 2
      vertex 203.95 -5.6 6
      vertex 183.95 -5.6 6
    endloop
  endfacet
  facet normal 0 -1 -0
    outer loop
      vertex 203.95 -5.6 6
      vertex 183.95 -5.6 2
      vertex 203.95 -5.6 2
    endloop
  endfacet
  facet normal 0 1 -0
    outer loop
      vertex 203.95 -2.4 2
      vertex 202.95 -2.4 5
      vertex 203.95 -2.4 5
    endloop
  endfacet
  facet normal 0 1 0
    outer loop
      vertex 202.95 -2.4 5
      vertex 203.95 -2.4 2
      vertex 184.95 -2.4 5
    endloop
  endfacet
  facet normal 0 1 0
    outer loop
      vertex 183.95 -2.4 2
      vertex 184.95 -2.4 5
      vertex 203.95 -2.4 2
    endloop
  endfacet
  facet normal 0 1 0
    outer loop
      vertex 184.95 -2.4 5
      vertex 183.95 -2.4 2
      vertex 183.95 -2.4 5
    endloop
  endfacet
  facet normal 0 1 -0
    outer loop
      vertex 202.95 -2.4 5
      vertex 184.95 -2.4 6
      vertex 202.95 -2.4 6
    endloop
  endfacet
  facet normal 0 1 0
    outer loop
      vertex 184.95 -2.4 6
      vertex 202.95 -2.4 5
      vertex 184.95 -2.4 5
    endloop
  endfacet
  facet normal 1 0 0
    outer loop
      vertex 203.95 -69.7 6
      vertex 203.95 -71.9 6
      vertex 203.95 -69.7 5
    endloop
  endfacet
  facet normal 1 -0 0
    outer loop
      vertex 203.95 -69.7 5
      vertex 203.95 -68.7 2
      vertex 203.95 -68.7 5
    endloop
  endfacet
  facet normal 1 0 0
    outer loop
      vertex 203.95 -71.9 2
      vertex 203.95 -69.7 5
      vertex 203.95 -71.9 6
    endloop
  endfacet
  facet normal 1 0 0
    outer loop
      vertex 203.95 -69.7 5
      vertex 203.95 -71.9 2
      vertex 203.95 -68.7 2
    endloop
  endfacet
  facet normal 0 0 1
    outer loop
      vertex 202.95 -68.7 6
      vertex 184.95 -68.7 6
      vertex 202.95 -69.7 6
    endloop
  endfacet
  facet normal -0 0 1
    outer loop
      vertex 202.95 -69.7 6
      vertex 203.95 -71.9 6
      vertex 203.95 -69.7 6
    endloop
  endfacet
  facet normal 0 0 1
    outer loop
      vertex 184.95 -69.7 6
      vertex 202.95 -69.7 6
      vertex 184.95 -68.7 6
    endloop
  endfacet
  facet normal 0 0 1
    outer loop
      vertex 202.95 -69.7 6
      vertex 184.95 -69.7 6
      vertex 203.95 -71.9 6
    endloop
  endfacet
  facet normal 0 0 1
    outer loop
      vertex 183.95 -71.9 6
      vertex 184.95 -69.7 6
      vertex 183.95 -69.7 6
    endloop
  endfacet
  facet normal 0 0 1
    outer loop
      vertex 184.95 -69.7 6
      vertex 183.95 -71.9 6
      vertex 203.95 -71.9 6
    endloop
  endfacet
  facet normal -1 0 0
    outer loop
      vertex 183.95 -68.7 2
      vertex 183.95 -69.7 5
      vertex 183.95 -68.7 5
    endloop
  endfacet
  facet normal -1 0 0
    outer loop
      vertex 183.95 -71.9 2
      vertex 183.95 -69.7 5
      vertex 183.95 -68.7 2
    endloop
  endfacet
  facet normal -1 0 0
    outer loop
      vertex 183.95 -71.9 6
      vertex 183.95 -69.7 5
      vertex 183.95 -71.9 2
    endloop
  endfacet
  facet normal -1 0 0
    outer loop
      vertex 183.95 -69.7 5
      vertex 183.95 -71.9 6
      vertex 183.95 -69.7 6
    endloop
  endfacet
  facet normal 0 -1 0
    outer loop
      vertex 183.95 -71.9 2
      vertex 203.95 -71.9 6
      vertex 183.95 -71.9 6
    endloop
  endfacet
  facet normal 0 -1 -0
    outer loop
      vertex 203.95 -71.9 6
      vertex 183.95 -71.9 2
      vertex 203.95 -71.9 2
    endloop
  endfacet
  facet normal 0 1 -0
    outer loop
      vertex 203.95 -68.7 2
      vertex 202.95 -68.7 5
      vertex 203.95 -68.7 5
    endloop
  endfacet
  facet normal 0 1 0
    outer loop
      vertex 202.95 -68.7 5
      vertex 203.95 -68.7 2
      vertex 184.95 -68.7 5
    endloop
  endfacet
  facet normal 0 1 0
    outer loop
      vertex 183.95 -68.7 2
      vertex 184.95 -68.7 5
      vertex 203.95 -68.7 2
    endloop
  endfacet
  facet normal 0 1 0
    outer loop
      vertex 184.95 -68.7 5
      vertex 183.95 -68.7 2
      vertex 183.95 -68.7 5
    endloop
  endfacet
  facet normal 0 1 -0
    outer loop
      vertex 202.95 -68.7 5
      vertex 184.95 -68.7 6
      vertex 202.95 -68.7 6
    endloop
  endfacet
  facet normal 0 1 0
    outer loop
      vertex 184.95 -68.7 6
      vertex 202.95 -68.7 5
      vertex 184.95 -68.7 5
    endloop
  endfacet
  facet normal -1 0 0
    outer loop
      vertex 184.95 -3.4 5
      vertex 184.95 -2.4 6
      vertex 184.95 -2.4 5
    endloop
  endfacet
  facet normal -1 -0 0
    outer loop
      vertex 184.95 -2.4 6
      vertex 184.95 -3.4 5
      vertex 184.95 -3.4 6
    endloop
  endfacet
  facet normal -0 0 1
    outer loop
      vertex 183.95 -2.4 5
      vertex 184.95 -3.4 5
      vertex 184.95 -2.4 5
    endloop
  endfacet
  facet normal 0 0 1
    outer loop
      vertex 184.95 -3.4 5
      vertex 183.95 -2.4 5
      vertex 183.95 -3.4 5
    endloop
  endfacet
  facet normal 0 1 -0
    outer loop
      vertex 184.95 -3.4 5
      vertex 183.95 -3.4 6
      vertex 184.95 -3.4 6
    endloop
  endfacet
  facet normal 0 1 0
    outer loop
      vertex 183.95 -3.4 6
      vertex 184.95 -3.4 5
      vertex 183.95 -3.4 5
    endloop
  endfacet
  facet normal -0 0 1
    outer loop
      vertex 202.95 -2.4 5
      vertex 203.95 -3.4 5
      vertex 203.95 -2.4 5
    endloop
  endfacet
  facet normal 0 0 1
    outer loop
      vertex 203.95 -3.4 5
      vertex 202.95 -2.4 5
      vertex 202.95 -3.4 5
    endloop
  endfacet
  facet normal 1 -0 0
    outer loop
      vertex 202.95 -3.4 6
      vertex 202.95 -2.4 5
      vertex 202.95 -2.4 6
    endloop
  endfacet
  facet normal 1 0 0
    outer loop
      vertex 202.95 -2.4 5
      vertex 202.95 -3.4 6
      vertex 202.95 -3.4 5
    endloop
  endfacet
  facet normal 0 1 -0
    outer loop
      vertex 203.95 -3.4 5
      vertex 202.95 -3.4 6
      vertex 203.95 -3.4 6
    endloop
  endfacet
  facet normal 0 1 0
    outer loop
      vertex 202.95 -3.4 6
      vertex 203.95 -3.4 5
      vertex 202.95 -3.4 5
    endloop
  endfacet
  facet normal -1 0 0
    outer loop
      vertex 184.95 -69.7 5
      vertex 184.95 -68.7 6
      vertex 184.95 -68.7 5
    endloop
  endfacet
  facet normal -1 -0 0
    outer loop
      vertex 184.95 -68.7 6
      vertex 184.95 -69.7 5
      vertex 184.95 -69.7 6
    endloop
  endfacet
  facet normal -0 0 1
    outer loop
      vertex 183.95 -68.7 5
      vertex 184.95 -69.7 5
      vertex 184.95 -68.7 5
    endloop
  endfacet
  facet normal 0 0 1
    outer loop
      vertex 184.95 -69.7 5
      vertex 183.95 -68.7 5
      vertex 183.95 -69.7 5
    endloop
  endfacet
  facet normal 0 1 -0
    outer loop
      vertex 184.95 -69.7 5
      vertex 183.95 -69.7 6
      vertex 184.95 -69.7 6
    endloop
  endfacet
  facet normal 0 1 0
    outer loop
      vertex 183.95 -69.7 6
      vertex 184.95 -69.7 5
      vertex 183.95 -69.7 5
    endloop
  endfacet
  facet normal -0 0 1
    outer loop
      vertex 202.95 -68.7 5
      vertex 203.95 -69.7 5
      vertex 203.95 -68.7 5
    endloop
  endfacet
  facet normal 0 0 1
    outer loop
      vertex 203.95 -69.7 5
      vertex 202.95 -68.7 5
      vertex 202.95 -69.7 5
    endloop
  endfacet
  facet normal 1 -0 0
    outer loop
      vertex 202.95 -69.7 6
      vertex 202.95 -68.7 5
      vertex 202.95 -68.7 6
    endloop
  endfacet
  facet normal 1 0 0
    outer loop
      vertex 202.95 -68.7 5
      vertex 202.95 -69.7 6
      vertex 202.95 -69.7 5
    endloop
  endfacet
  facet normal 0 1 -0
    outer loop
      vertex 203.95 -69.7 5
      vertex 202.95 -69.7 6
      vertex 203.95 -69.7 6
    endloop
  endfacet
  facet normal 0 1 0
    outer loop
      vertex 202.95 -69.7 6
      vertex 203.95 -69.7 5
      vertex 202.95 -69.7 5
    endloop
  endfacet
endsolid OpenSCAD_Model
